<svg version="1.1" xmlns="http://www.w3.org/2000/svg" viewBox="0 0 80.3502394604372 148.20156647114544" width="80.3502394604372" height="148.20156647114544" class="excalidraw-svg">
  <!-- svg-source:excalidraw -->
  
  <defs>
    <style class="style-fonts">
      
    </style>
    
  </defs>
  <rect x="0" y="0" width="80.3502394604372" height="148.20156647114544" fill="#ffffff"></rect><g stroke-linecap="round"><g transform="translate(38.652786428891716 52.05710212593918) rotate(0 -13.913217770770842 12.349684795488344)"><path d="M0.37 0.62 C-4.21 1.84, -28.36 2.48, -28.65 6.34 C-28.94 10.21, -5.87 20.72, -1.35 23.81 M-0.89 -0.09 C-4.99 1.39, -26.71 3.65, -26.37 7.78 C-26.03 11.9, -2.94 21.61, 1.17 24.65" stroke="#1864ab" stroke-width="4" fill="none"></path></g></g><mask></mask><g stroke-linecap="round" transform="translate(23.968730471825836 10) rotate(0 21.876002969180462 16.79245059258461)"><path d="M5.32 5.95 C5.32 5.95, 5.32 5.95, 5.32 5.95 M5.32 5.95 C5.32 5.95, 5.32 5.95, 5.32 5.95 M6.9 28.52 C15.1 18.57, 21.96 9.4, 29.86 2.1 M6.9 28.52 C15.3 18.84, 24.03 9.01, 29.86 2.1 M23.56 33.73 C30.41 25.97, 36.19 18.49, 42.59 11.85 M23.56 33.73 C30.22 26.8, 36.68 19.04, 42.59 11.85" stroke="#ced4da" stroke-width="2" fill="none"></path><path d="M18.64 0.04 C23.09 -0.59, 29.45 0.7, 33.4 2.64 C37.34 4.58, 40.82 8.33, 42.3 11.69 C43.79 15.05, 44.02 19.43, 42.31 22.8 C40.61 26.18, 36.22 30.19, 32.07 31.96 C27.92 33.72, 21.94 34.24, 17.42 33.4 C12.89 32.55, 7.78 29.71, 4.9 26.9 C2.02 24.08, 0.01 20.05, 0.13 16.5 C0.24 12.96, 2.47 8.38, 5.6 5.62 C8.73 2.85, 16.5 0.74, 18.92 -0.08 C21.33 -0.91, 20.06 0.35, 20.1 0.66 M22.55 0.33 C26.85 -0.03, 31.97 1, 35.55 3.23 C39.14 5.46, 43.24 9.96, 44.05 13.73 C44.85 17.49, 42.76 22.66, 40.37 25.83 C37.98 29.01, 34.17 31.77, 29.71 32.77 C25.25 33.78, 18.06 33.07, 13.61 31.88 C9.16 30.7, 5.18 28.69, 2.99 25.66 C0.8 22.63, -0.27 17.31, 0.46 13.7 C1.18 10.09, 3.71 6.38, 7.34 4 C10.96 1.62, 19.84 0.03, 22.21 -0.57 C24.58 -1.17, 21.48 0, 21.54 0.37" stroke="#1864ab" stroke-width="4" fill="none"></path></g><g stroke-linecap="round"><g transform="translate(43.63259845917156 32.80464251120037) rotate(0 7.622987964530807 -2.4591042313448894)"><path d="M-0.33 -0.41 C1.21 -0.35, 6.3 1.04, 8.86 0.28 C11.43 -0.48, 13.98 -4.02, 15.08 -4.98 M0.5 0.57 C2.24 0.74, 7.53 2.1, 9.89 1.01 C12.25 -0.08, 13.68 -4.94, 14.65 -5.97" stroke="#1864ab" stroke-width="4" fill="none"></path></g></g><mask></mask><g stroke-linecap="round"><g transform="translate(48.37647507356064 50.732029723030394) rotate(0 8.496588848219886 -4.375615240068328)"><path d="M-0.89 0.14 C2 1.59, 15.13 10.67, 16.63 7.82 C18.14 4.97, 9.53 -12.97, 8.15 -16.96 M0.84 -0.84 C3.61 0.32, 14.37 8.4, 15.5 5.87 C16.63 3.34, 8.72 -12.56, 7.62 -16.02" stroke="#1864ab" stroke-width="4" fill="none"></path></g></g><mask></mask><g stroke-linecap="round"><g transform="translate(44.84295675337984 56.56233050316298) rotate(0 -0.5300273436484133 37.366929749107015)"><path d="M-0.36 0.34 C-0.31 5.6, -0.69 19.27, -0.61 31.7 C-0.53 44.12, 0.14 67.83, 0.12 74.88 M1.65 -0.53 C1.66 4.86, -0.99 20.05, -1.32 32.86 C-1.65 45.66, -0.42 69.3, -0.31 76.28" stroke="#1864ab" stroke-width="4" fill="none"></path></g></g><mask></mask><g stroke-linecap="round"><g transform="translate(38.217614957774344 137.4798430179065) rotate(0 -10.953897087471319 -0.08833856457268752)"><path d="M0.21 -0.33 C-3.37 -0.38, -17.91 -0.08, -21.61 -0.11 M-0.35 0.69 C-3.96 0.73, -18.21 0.75, -21.89 0.63" stroke="#1864ab" stroke-width="4" fill="none"></path></g></g><mask></mask><g stroke-linecap="round"><g transform="translate(47.669774644554536 137.21482934608224) rotate(0 11.3955878884409 -0.13250683591211043)"><path d="M0.3 0.07 C4.04 0.03, 18.85 -0.51, 22.68 -0.59 M-0.21 -0.37 C3.43 -0.32, 18.3 -0.14, 22.19 -0.06" stroke="#1864ab" stroke-width="4" fill="none"></path></g></g><mask></mask><g stroke-linecap="round"><g transform="translate(52.034145473166234 19.919054203798368) rotate(0 1.9146947098355724 -0.8247004733783179)" fill-rule="evenodd"><path d="M0 0 C0 0, 0 0, 0 0 M0 0 C0 0, 0 0, 0 0" stroke="#ced4da" stroke-width="2" fill="none"></path><path d="M-0.07 -0.21 C0.36 -0.53, 2.09 -1.94, 2.76 -1.87 C3.42 -1.81, 3.8 -0.16, 3.93 0.19 M-0.54 0.45 C-0.15 0.17, 1.92 -1.51, 2.63 -1.48 C3.35 -1.45, 3.61 0.27, 3.76 0.61" stroke="#1864ab" stroke-width="4" fill="none"></path></g></g><mask></mask><g stroke-linecap="round"><g transform="translate(44.7914472443494 20.651730703024796) rotate(0 1.9146947098355724 -0.8247004733783179)" fill-rule="evenodd"><path d="M0 0 C0 0, 0 0, 0 0 M0 0 C0 0, 0 0, 0 0" stroke="#ced4da" stroke-width="2" fill="none"></path><path d="M0.31 -0.11 C0.74 -0.36, 2.01 -1.74, 2.55 -1.68 C3.09 -1.63, 3.33 -0.12, 3.55 0.2 M0.03 -0.47 C0.44 -0.81, 1.62 -2.45, 2.33 -2.27 C3.03 -2.08, 3.98 0.15, 4.26 0.63" stroke="#1864ab" stroke-width="4" fill="none"></path></g></g><mask></mask></svg>