<svg version="1.1" xmlns="http://www.w3.org/2000/svg" viewBox="0 0 405.0603151464535 207.68999654605338" width="405.0603151464535" height="207.68999654605338" class="excalidraw-svg">
  <!-- svg-source:excalidraw -->
  
  <defs>
    <style class="style-fonts">
      
    </style>
    
  </defs>
  <rect x="0" y="0" width="405.0603151464535" height="207.68999654605338" fill="#ffffff"></rect><g stroke-linecap="round"><g transform="translate(11.080786582827557 10.205541941383842) rotate(0 0 92.41697888295202)"><path d="M-1.08 0.55 C-1.01 31.36, 0.94 153.78, 0.98 184.31 M0.55 -0.21 C0.51 30.81, 0.37 154.8, 0.54 185.57" stroke="#000000" stroke-width="1" fill="none"></path></g></g><mask></mask><g stroke-linecap="round"><g transform="translate(10.774761490393871 195.87418383837033) rotate(0 191.43517054325775 0)"><path d="M0.98 -0.52 C64.83 -0.8, 318.52 -1.11, 382.02 -1.12 M0.03 1.82 C64.36 1.59, 320.23 0.06, 384.29 -0.17" stroke="#000000" stroke-width="1" fill="none"></path></g></g><mask></mask><g stroke-linecap="round" transform="translate(23.562098187162235 102.77566442055354) rotate(0 4.400808518235863 4.400808518235863)"><path d="M1.51 1.31 C1.51 1.31, 1.51 1.31, 1.51 1.31 M1.51 1.31 C1.51 1.31, 1.51 1.31, 1.51 1.31 M1.25 7.71 C3.41 5.57, 5.04 3.1, 7.15 0.92 M1.25 7.71 C3.36 5.32, 5.57 2.77, 7.15 0.92 M5.58 8.82 C6.7 7.2, 8.07 5.74, 8.86 5.05 M5.58 8.82 C6.76 7.42, 8.08 6.06, 8.86 5.05 M0.6 6.93 C0.6 6.93, 0.6 6.93, 0.6 6.93 M0.6 6.93 C0.6 6.93, 0.6 6.93, 0.6 6.93 M7 7.19 C5.46 5.73, 3.56 4.3, 1.71 2.6 M7 7.19 C5.25 5.68, 3.52 4.17, 1.71 2.6 M8.87 3.52 C7.51 2.18, 5.59 0.75, 4.34 -0.42 M8.87 3.52 C7.32 2.19, 5.73 0.9, 4.34 -0.42" stroke="#15aabf" stroke-width="0.5" fill="none"></path><path d="M4.06 0.31 C4.97 0.27, 6.6 0.47, 7.37 0.98 C8.13 1.5, 8.49 2.43, 8.64 3.38 C8.8 4.32, 8.75 5.83, 8.3 6.67 C7.86 7.51, 6.81 8.16, 5.99 8.44 C5.18 8.72, 4.29 8.58, 3.41 8.35 C2.54 8.12, 1.28 7.79, 0.75 7.07 C0.23 6.34, 0.18 4.96, 0.29 4.01 C0.41 3.06, 0.78 2.06, 1.44 1.38 C2.11 0.7, 3.79 0.16, 4.26 -0.07 C4.74 -0.29, 4.33 -0.12, 4.28 0.01 M3.96 0.39 C4.91 0.39, 6.11 0.7, 6.95 1.25 C7.8 1.8, 8.81 2.83, 9.01 3.69 C9.22 4.54, 8.61 5.59, 8.19 6.4 C7.76 7.2, 7.28 8.14, 6.48 8.52 C5.67 8.9, 4.28 8.96, 3.38 8.67 C2.48 8.37, 1.57 7.63, 1.05 6.76 C0.53 5.89, 0.19 4.39, 0.26 3.45 C0.33 2.5, 0.8 1.58, 1.49 1.09 C2.17 0.59, 3.99 0.68, 4.38 0.49 C4.77 0.29, 3.88 -0.02, 3.82 -0.08" stroke="#000000" stroke-width="1" fill="none"></path></g><g stroke-linecap="round" transform="translate(49.96694929657707 115.97808997526099) rotate(0 4.400808518235863 4.400808518235863)"><path d="M1.35 1.17 C1.35 1.17, 1.35 1.17, 1.35 1.17 M1.35 1.17 C1.35 1.17, 1.35 1.17, 1.35 1.17 M1.08 7.57 C3.07 5.03, 5.51 2.68, 6.99 0.78 M1.08 7.57 C3.53 4.8, 5.81 2.35, 6.99 0.78 M5.42 8.68 C6.08 7.73, 6.98 7.11, 8.7 4.91 M5.42 8.68 C6.4 7.68, 7.24 6.6, 8.7 4.91 M1.44 7.49 C1.44 7.49, 1.44 7.49, 1.44 7.49 M1.44 7.49 C1.44 7.49, 1.44 7.49, 1.44 7.49 M7.09 7.09 C5.61 5.94, 4.47 4.5, 1.05 1.84 M7.09 7.09 C4.68 4.99, 2.35 2.91, 1.05 1.84 M8.96 3.42 C7.56 2.31, 6.62 1.19, 4.43 -0.52 M8.96 3.42 C7.79 2.53, 6.81 1.5, 4.43 -0.52" stroke="#15aabf" stroke-width="0.5" fill="none"></path><path d="M4.09 0.14 C4.98 -0.1, 5.93 0.09, 6.68 0.62 C7.42 1.15, 8.29 2.4, 8.57 3.3 C8.85 4.2, 8.66 5.23, 8.37 6.02 C8.07 6.81, 7.59 7.53, 6.78 8.02 C5.98 8.52, 4.48 9.11, 3.55 8.98 C2.61 8.86, 1.78 8.03, 1.2 7.27 C0.61 6.52, 0.05 5.44, 0.04 4.46 C0.03 3.48, 0.52 2.15, 1.15 1.39 C1.79 0.64, 3.43 0.12, 3.85 -0.04 C4.26 -0.21, 3.66 0.36, 3.65 0.4 M3.96 0.41 C4.93 0.27, 6.5 0.64, 7.25 1.12 C8.01 1.6, 8.25 2.43, 8.49 3.3 C8.73 4.17, 9.03 5.49, 8.7 6.34 C8.36 7.19, 7.33 8.05, 6.48 8.42 C5.63 8.8, 4.49 8.9, 3.58 8.57 C2.68 8.24, 1.61 7.24, 1.04 6.46 C0.46 5.68, 0.06 4.68, 0.14 3.89 C0.23 3.11, 0.95 2.45, 1.55 1.77 C2.14 1.1, 3.32 0.17, 3.71 -0.16 C4.09 -0.49, 3.78 -0.4, 3.87 -0.22" stroke="#000000" stroke-width="1" fill="none"></path></g><g stroke-linecap="round" transform="translate(76.3718004059919 129.1805155299684) rotate(0 4.400808518235863 4.400808518235863)"><path d="M2.13 0.52 C2.13 0.52, 2.13 0.52, 2.13 0.52 M2.13 0.52 C2.13 0.52, 2.13 0.52, 2.13 0.52 M1.21 7.68 C3.43 5.36, 5.59 3.02, 7.11 0.88 M1.21 7.68 C3.22 5.58, 4.86 3.19, 7.11 0.88 M5.54 8.79 C6.34 8.08, 6.87 7.18, 8.82 5.02 M5.54 8.79 C6.48 7.7, 7.5 6.52, 8.82 5.02 M2.21 8.12 C2.21 8.12, 2.21 8.12, 2.21 8.12 M2.21 8.12 C2.21 8.12, 2.21 8.12, 2.21 8.12 M7.1 7.07 C5.39 5.25, 3.77 3.9, 1.06 1.83 M7.1 7.07 C5.47 5.59, 3.67 4.25, 1.06 1.83 M8.97 3.4 C7.89 2.28, 6.58 1.35, 5.2 0.12 M8.97 3.4 C7.83 2.36, 6.74 1.37, 5.2 0.12" stroke="#15aabf" stroke-width="0.5" fill="none"></path><path d="M5.01 0.01 C5.85 0.11, 7.08 1.05, 7.69 1.76 C8.3 2.47, 8.61 3.42, 8.68 4.28 C8.76 5.13, 8.71 6.1, 8.15 6.89 C7.59 7.68, 6.25 8.74, 5.32 8.99 C4.39 9.25, 3.38 8.88, 2.55 8.42 C1.72 7.96, 0.72 7.13, 0.34 6.21 C-0.04 5.3, -0.03 3.87, 0.26 2.93 C0.55 1.99, 1.33 1, 2.09 0.57 C2.84 0.14, 4.31 0.46, 4.8 0.34 C5.29 0.23, 5.02 -0.14, 5.03 -0.14 M5.3 0.37 C6.17 0.37, 6.84 0.81, 7.47 1.47 C8.11 2.12, 8.99 3.34, 9.1 4.28 C9.21 5.22, 8.68 6.39, 8.11 7.11 C7.54 7.83, 6.6 8.49, 5.68 8.61 C4.76 8.73, 3.49 8.28, 2.62 7.84 C1.75 7.4, 0.83 6.68, 0.47 5.96 C0.11 5.25, 0.26 4.48, 0.47 3.57 C0.68 2.66, 1 1.16, 1.72 0.52 C2.45 -0.12, 4.25 -0.3, 4.81 -0.29 C5.38 -0.27, 5.15 0.52, 5.12 0.6" stroke="#000000" stroke-width="1" fill="none"></path></g><g stroke-linecap="round" transform="translate(102.77665151540685 129.1805155299684) rotate(0 4.400808518235863 4.400808518235863)"><path d="M1.39 1.21 C1.39 1.21, 1.39 1.21, 1.39 1.21 M1.39 1.21 C1.39 1.21, 1.39 1.21, 1.39 1.21 M1.13 7.61 C3.02 5.79, 4.45 4.15, 7.03 0.82 M1.13 7.61 C2.3 5.96, 3.59 4.53, 7.03 0.82 M5.46 8.72 C6.24 7.69, 7.11 6.96, 9.4 4.19 M5.46 8.72 C6.92 7.05, 8.19 5.6, 9.4 4.19 M2.93 8.83 C2.93 8.83, 2.93 8.83, 2.93 8.83 M2.93 8.83 C2.93 8.83, 2.93 8.83, 2.93 8.83 M7.06 7.12 C5.48 5.46, 3.34 3.89, 1.02 1.87 M7.06 7.12 C5.26 5.73, 3.57 3.96, 1.02 1.87 M8.93 3.45 C7.82 2.52, 6.92 1.54, 5.16 0.16 M8.93 3.45 C7.69 2.27, 6.22 1.15, 5.16 0.16" stroke="#15aabf" stroke-width="0.5" fill="none"></path><path d="M4.59 0.27 C5.48 0.26, 6.52 0.59, 7.27 1.15 C8.01 1.7, 8.93 2.6, 9.07 3.58 C9.22 4.57, 8.67 6.19, 8.15 7.05 C7.64 7.92, 6.87 8.49, 5.97 8.76 C5.07 9.03, 3.65 9.07, 2.74 8.67 C1.84 8.27, 0.96 7.24, 0.52 6.35 C0.08 5.47, -0.06 4.22, 0.09 3.36 C0.23 2.5, 0.65 1.79, 1.41 1.19 C2.17 0.58, 4.08 -0.08, 4.64 -0.28 C5.19 -0.47, 4.68 -0.1, 4.74 0.01 M4.82 0.09 C5.71 0.11, 7.25 0.83, 7.95 1.52 C8.65 2.21, 8.97 3.34, 9.01 4.25 C9.05 5.17, 8.77 6.33, 8.2 7 C7.63 7.66, 6.54 8.03, 5.58 8.22 C4.63 8.42, 3.32 8.45, 2.49 8.17 C1.66 7.89, 1.03 7.44, 0.6 6.56 C0.17 5.68, -0.31 3.93, -0.09 2.9 C0.12 1.87, 1.02 0.76, 1.89 0.37 C2.77 -0.03, 4.68 0.6, 5.15 0.52 C5.62 0.43, 4.75 -0.2, 4.69 -0.15" stroke="#000000" stroke-width="1" fill="none"></path></g><g stroke-linecap="round" transform="translate(115.97907707011427 102.77566442055354) rotate(0 4.400808518235863 4.400808518235863)"><path d="M1.18 1.02 C1.18 1.02, 1.18 1.02, 1.18 1.02 M1.18 1.02 C1.18 1.02, 1.18 1.02, 1.18 1.02 M0.91 7.42 C2.81 5.59, 4.35 3.44, 6.82 0.63 M0.91 7.42 C2.84 5.04, 4.89 2.85, 6.82 0.63 M4.59 9.29 C6.13 7.71, 7.82 5.73, 9.18 4.01 M4.59 9.29 C5.97 7.72, 7.32 6.09, 9.18 4.01 M0.77 6.74 C0.77 6.74, 0.77 6.74, 0.77 6.74 M0.77 6.74 C0.77 6.74, 0.77 6.74, 0.77 6.74 M7.92 7.66 C6.48 6.43, 5.14 5.4, 1.13 1.75 M7.92 7.66 C5.95 5.81, 3.91 4.28, 1.13 1.75 M9.04 3.32 C8.02 2.24, 7.07 1.52, 4.51 -0.61 M9.04 3.32 C7.78 2.31, 6.76 1.33, 4.51 -0.61" stroke="#15aabf" stroke-width="0.5" fill="none"></path><path d="M4.19 -0.02 C5.14 -0.18, 6.7 0.07, 7.46 0.71 C8.23 1.35, 8.59 2.83, 8.77 3.82 C8.94 4.81, 8.97 5.86, 8.52 6.67 C8.06 7.49, 6.95 8.41, 6.03 8.71 C5.12 9.01, 3.91 8.85, 3.01 8.5 C2.11 8.15, 1.16 7.35, 0.62 6.61 C0.07 5.86, -0.39 4.98, -0.27 4.01 C-0.14 3.05, 0.62 1.49, 1.37 0.8 C2.12 0.11, 3.65 0.02, 4.21 -0.11 C4.77 -0.23, 4.66 -0.07, 4.73 0.06 M5.19 0.12 C6.15 0.16, 7.14 0.75, 7.79 1.4 C8.45 2.05, 9.04 3.18, 9.1 4.03 C9.17 4.89, 8.77 5.78, 8.18 6.53 C7.59 7.28, 6.48 8.16, 5.57 8.54 C4.66 8.92, 3.63 9.25, 2.72 8.82 C1.8 8.4, 0.52 6.99, 0.07 5.99 C-0.38 5, -0.31 3.64, 0.03 2.84 C0.37 2.05, 1.37 1.73, 2.13 1.22 C2.89 0.71, 4.18 -0.12, 4.61 -0.25 C5.04 -0.37, 4.73 0.33, 4.73 0.45" stroke="#000000" stroke-width="1" fill="none"></path></g><g stroke-linecap="round" transform="translate(142.38392817952914 76.37081331113868) rotate(0 4.400808518235863 4.400808518235863)"><path d="M2 0.42 C2 0.42, 2 0.42, 2 0.42 M2 0.42 C2 0.42, 2 0.42, 2 0.42 M1.09 7.57 C2.75 5.63, 5.03 2.92, 6.99 0.78 M1.09 7.57 C2.21 6.26, 3.64 4.7, 6.99 0.78 M5.42 8.68 C6.58 7.47, 7.55 6.42, 9.35 4.16 M5.42 8.68 C6.15 7.79, 6.92 6.78, 9.35 4.16 M-0.13 6.24 C-0.13 6.24, -0.13 6.24, -0.13 6.24 M-0.13 6.24 C-0.13 6.24, -0.13 6.24, -0.13 6.24 M7.03 7.16 C5.3 5.79, 3.6 4.1, 0.99 1.91 M7.03 7.16 C4.6 5.12, 2.17 2.92, 0.99 1.91 M9.65 4.14 C8.31 2.87, 6.64 1.81, 4.37 -0.45 M9.65 4.14 C8.26 2.9, 6.76 1.64, 4.37 -0.45" stroke="#15aabf" stroke-width="0.5" fill="none"></path><path d="M5.29 -0.22 C6.21 -0.11, 7.07 0.94, 7.7 1.71 C8.33 2.48, 9.02 3.44, 9.06 4.37 C9.09 5.3, 8.54 6.58, 7.93 7.29 C7.31 8, 6.3 8.47, 5.37 8.63 C4.44 8.79, 3.23 8.6, 2.34 8.22 C1.45 7.85, 0.39 7.27, 0.01 6.36 C-0.37 5.46, -0.23 3.74, 0.08 2.78 C0.38 1.81, 0.99 1.04, 1.86 0.58 C2.74 0.12, 4.73 0.05, 5.32 0.02 C5.91 -0.02, 5.41 0.31, 5.39 0.37 M4.68 0.04 C5.58 -0.03, 6.88 0.46, 7.6 0.99 C8.31 1.52, 8.86 2.31, 8.98 3.23 C9.1 4.16, 8.78 5.56, 8.3 6.53 C7.82 7.5, 7.07 8.74, 6.11 9.04 C5.14 9.34, 3.48 8.81, 2.53 8.34 C1.58 7.87, 0.79 6.93, 0.41 6.22 C0.03 5.5, 0.09 4.96, 0.25 4.05 C0.41 3.13, 0.67 1.33, 1.35 0.71 C2.03 0.09, 3.85 0.44, 4.33 0.34 C4.82 0.24, 4.2 0.15, 4.27 0.12" stroke="#000000" stroke-width="1" fill="none"></path></g><g stroke-linecap="round" transform="translate(168.78877928894397 63.16838775643126) rotate(0 4.400808518235863 4.400808518235863)"><path d="M1.53 1.33 C1.53 1.33, 1.53 1.33, 1.53 1.33 M1.53 1.33 C1.53 1.33, 1.53 1.33, 1.53 1.33 M1.27 7.73 C3.78 4.75, 5.74 2, 7.17 0.93 M1.27 7.73 C2.91 5.89, 4.36 4.11, 7.17 0.93 M6.25 8.09 C7.53 6.78, 8.63 5.14, 9.54 4.31 M6.25 8.09 C7.27 6.78, 8.38 5.64, 9.54 4.31 M2.79 8.99 C2.79 8.99, 2.79 8.99, 2.79 8.99 M2.79 8.99 C2.79 8.99, 2.79 8.99, 2.79 8.99 M6.92 7.28 C5.16 5.68, 3.68 4.27, 0.88 2.03 M6.92 7.28 C5.57 6.11, 4.37 5.1, 0.88 2.03 M8.79 3.61 C7.91 3.05, 7.15 2.06, 5.02 0.32 M8.79 3.61 C7.67 2.65, 6.55 1.71, 5.02 0.32" stroke="#15aabf" stroke-width="0.5" fill="none"></path><path d="M4.41 0.28 C5.3 0.28, 6.73 0.57, 7.46 1.16 C8.18 1.75, 8.63 2.91, 8.77 3.8 C8.9 4.69, 8.73 5.72, 8.26 6.5 C7.79 7.27, 6.86 8.06, 5.92 8.45 C4.98 8.84, 3.52 9.19, 2.61 8.84 C1.71 8.49, 0.94 7.22, 0.48 6.35 C0.02 5.47, -0.34 4.46, -0.12 3.57 C0.1 2.69, 0.99 1.58, 1.8 1.02 C2.6 0.47, 4.22 0.4, 4.71 0.23 C5.2 0.05, 4.79 -0.09, 4.75 -0.02 M4.84 -0.08 C5.75 -0.2, 6.89 0.02, 7.56 0.64 C8.24 1.26, 8.74 2.54, 8.88 3.63 C9.02 4.72, 8.98 6.4, 8.41 7.19 C7.85 7.99, 6.45 8.24, 5.48 8.4 C4.52 8.57, 3.42 8.41, 2.63 8.17 C1.83 7.93, 1.16 7.79, 0.69 6.97 C0.23 6.14, -0.32 4.18, -0.18 3.23 C-0.04 2.29, 0.78 1.82, 1.53 1.28 C2.29 0.75, 3.78 0.28, 4.33 0.04 C4.88 -0.21, 4.75 -0.24, 4.81 -0.2" stroke="#000000" stroke-width="1" fill="none"></path></g><g stroke-linecap="round" transform="translate(181.99120484365142 23.56111109230895) rotate(0 4.400808518235863 4.400808518235863)"><path d="M1.63 1.41 C1.63 1.41, 1.63 1.41, 1.63 1.41 M1.63 1.41 C1.63 1.41, 1.63 1.41, 1.63 1.41 M1.37 7.81 C3.39 4.9, 5.86 2.26, 7.27 1.02 M1.37 7.81 C3.5 5.28, 5.87 2.85, 7.27 1.02 M5.7 8.93 C6.54 7.73, 7.77 6.48, 8.98 5.15 M5.7 8.93 C6.72 7.76, 7.86 6.41, 8.98 5.15 M0.64 6.89 C0.64 6.89, 0.64 6.89, 0.64 6.89 M0.64 6.89 C0.64 6.89, 0.64 6.89, 0.64 6.89 M7.03 7.15 C5.22 5.36, 2.66 3.46, 1 1.9 M7.03 7.15 C4.98 5.38, 2.86 3.66, 1 1.9 M8.9 3.48 C7.49 2.11, 6.16 1.16, 4.37 -0.46 M8.9 3.48 C7.47 2.29, 6.1 1.1, 4.37 -0.46" stroke="#15aabf" stroke-width="0.5" fill="none"></path><path d="M4.09 0.19 C4.97 0.01, 6.06 0.43, 6.81 0.9 C7.57 1.37, 8.36 2.16, 8.63 3.02 C8.9 3.87, 8.86 5.09, 8.44 6.02 C8.02 6.95, 6.96 8.2, 6.11 8.59 C5.25 8.99, 4.21 8.68, 3.31 8.4 C2.41 8.13, 1.23 7.67, 0.72 6.97 C0.22 6.26, 0.14 5.05, 0.26 4.17 C0.38 3.28, 0.77 2.36, 1.43 1.65 C2.08 0.94, 3.72 0.14, 4.17 -0.08 C4.61 -0.31, 4.12 0.19, 4.1 0.3 M4.69 -0.47 C5.56 -0.53, 6.68 0.16, 7.4 0.93 C8.12 1.71, 8.93 3.25, 9.01 4.17 C9.09 5.09, 8.43 5.8, 7.88 6.48 C7.33 7.15, 6.52 7.81, 5.7 8.23 C4.89 8.65, 3.91 9.32, 3.01 9 C2.11 8.67, 0.8 7.12, 0.29 6.28 C-0.23 5.43, -0.25 4.79, -0.06 3.92 C0.12 3.04, 0.61 1.73, 1.41 1.03 C2.22 0.33, 4.2 -0.1, 4.74 -0.29 C5.28 -0.47, 4.66 -0.17, 4.64 -0.09" stroke="#000000" stroke-width="1" fill="none"></path></g><g stroke-linecap="round" transform="translate(208.39605595306625 36.763536647016394) rotate(0 4.400808518235863 4.400808518235863)"><path d="M2.24 0.62 C2.24 0.62, 2.24 0.62, 2.24 0.62 M2.24 0.62 C2.24 0.62, 2.24 0.62, 2.24 0.62 M1.98 7.02 C3.04 5.49, 4.47 4.51, 7.22 0.98 M1.98 7.02 C3.55 5.41, 4.9 3.68, 7.22 0.98 M5.65 8.89 C7.28 6.97, 8.82 5.13, 9.59 4.36 M5.65 8.89 C6.57 7.76, 7.52 6.82, 9.59 4.36 M2.16 8.18 C2.16 8.18, 2.16 8.18, 2.16 8.18 M2.16 8.18 C2.16 8.18, 2.16 8.18, 2.16 8.18 M7.05 7.13 C5.19 5.66, 3.94 4.17, 1.01 1.89 M7.05 7.13 C5.5 5.95, 4.18 4.57, 1.01 1.89 M8.92 3.46 C7.45 2.22, 6.03 0.87, 5.14 0.18 M8.92 3.46 C7.76 2.5, 6.78 1.54, 5.14 0.18" stroke="#15aabf" stroke-width="0.5" fill="none"></path><path d="M5.05 0.25 C5.9 0.28, 7.07 0.73, 7.69 1.38 C8.32 2.04, 8.8 3.16, 8.78 4.16 C8.75 5.17, 8.15 6.68, 7.55 7.39 C6.95 8.1, 6.09 8.28, 5.19 8.41 C4.29 8.55, 2.93 8.58, 2.16 8.18 C1.39 7.79, 0.86 6.84, 0.58 6.02 C0.3 5.2, 0.19 4.18, 0.48 3.27 C0.76 2.36, 1.51 1.07, 2.28 0.56 C3.06 0.06, 4.62 0.3, 5.11 0.25 C5.59 0.21, 5.2 0.22, 5.19 0.29 M4.4 -0.13 C5.3 -0.06, 6.73 0.85, 7.4 1.43 C8.07 2, 8.29 2.55, 8.41 3.34 C8.53 4.13, 8.5 5.23, 8.13 6.17 C7.76 7.11, 7.09 8.62, 6.19 8.97 C5.3 9.33, 3.69 8.63, 2.74 8.31 C1.79 7.99, 1 7.8, 0.51 7.05 C0.03 6.3, -0.36 4.83, -0.16 3.8 C0.05 2.76, 0.99 1.49, 1.76 0.82 C2.52 0.16, 4.01 -0.01, 4.45 -0.18 C4.9 -0.35, 4.41 -0.3, 4.41 -0.18" stroke="#000000" stroke-width="1" fill="none"></path></g><g stroke-linecap="round" transform="translate(234.80090706248114 76.37081331113868) rotate(0 4.400808518235863 4.400808518235863)"><path d="M1.57 1.37 C1.57 1.37, 1.57 1.37, 1.57 1.37 M1.57 1.37 C1.57 1.37, 1.57 1.37, 1.57 1.37 M1.97 7.01 C3.26 5.88, 4.1 4.43, 7.22 0.97 M1.97 7.01 C3.48 5.27, 5.11 3.38, 7.22 0.97 M5.64 8.88 C6.63 7.64, 7.41 6.59, 8.92 5.11 M5.64 8.88 C6.89 7.52, 8.05 6.09, 8.92 5.11 M0.84 6.65 C0.84 6.65, 0.84 6.65, 0.84 6.65 M0.84 6.65 C0.84 6.65, 0.84 6.65, 0.84 6.65 M7.24 6.91 C5.51 5.12, 3.41 3.64, 1.2 1.67 M7.24 6.91 C5.41 5.25, 3.67 3.67, 1.2 1.67 M8.35 2.58 C7.75 2.01, 7.13 1.44, 5.34 -0.04 M8.35 2.58 C7.5 1.79, 6.53 1.03, 5.34 -0.04" stroke="#15aabf" stroke-width="0.5" fill="none"></path><path d="M4.77 -0.06 C5.66 -0.09, 6.85 0.46, 7.46 1.18 C8.08 1.9, 8.39 3.36, 8.46 4.26 C8.53 5.16, 8.41 5.89, 7.9 6.6 C7.39 7.31, 6.25 8.24, 5.4 8.54 C4.56 8.83, 3.62 8.71, 2.83 8.37 C2.05 8.04, 1.11 7.39, 0.69 6.52 C0.28 5.66, 0.16 4.11, 0.36 3.2 C0.56 2.28, 1.11 1.53, 1.88 1.02 C2.64 0.52, 4.42 0.28, 4.95 0.17 C5.48 0.05, 5.08 0.27, 5.05 0.34 M3.98 0.53 C4.78 0.33, 5.62 0.1, 6.36 0.45 C7.1 0.8, 8.03 1.64, 8.41 2.64 C8.8 3.64, 9.04 5.57, 8.68 6.45 C8.32 7.34, 7.14 7.54, 6.26 7.98 C5.39 8.41, 4.34 9.19, 3.43 9.06 C2.51 8.93, 1.31 8.05, 0.78 7.21 C0.26 6.37, 0.2 5.02, 0.28 4.04 C0.36 3.06, 0.66 2.05, 1.26 1.34 C1.85 0.63, 3.4 -0.04, 3.84 -0.22 C4.28 -0.4, 3.85 0.08, 3.89 0.26" stroke="#000000" stroke-width="1" fill="none"></path></g><g stroke-linecap="round" transform="translate(261.20575817189604 63.16838775643126) rotate(0 4.400808518235863 4.400808518235863)"><path d="M2.24 0.62 C2.24 0.62, 2.24 0.62, 2.24 0.62 M2.24 0.62 C2.24 0.62, 2.24 0.62, 2.24 0.62 M1.97 7.02 C2.89 5.81, 3.89 4.96, 6.57 1.73 M1.97 7.02 C3.68 5.06, 5.16 3.37, 6.57 1.73 M5.65 8.89 C6.17 8.09, 6.97 7.47, 8.27 5.87 M5.65 8.89 C6.24 8.18, 6.93 7.38, 8.27 5.87 M2.97 8.78 C2.97 8.78, 2.97 8.78, 2.97 8.78 M2.97 8.78 C2.97 8.78, 2.97 8.78, 2.97 8.78 M7.1 7.07 C5.32 5.59, 3.89 4.02, 1.06 1.83 M7.1 7.07 C5.11 5.2, 2.77 3.4, 1.06 1.83 M8.97 3.4 C7.75 2.22, 6.55 1.15, 5.2 0.12 M8.97 3.4 C7.79 2.43, 6.81 1.39, 5.2 0.12" stroke="#15aabf" stroke-width="0.5" fill="none"></path><path d="M4.83 -0.05 C5.67 0.04, 6.6 0.98, 7.24 1.62 C7.88 2.27, 8.57 2.92, 8.66 3.8 C8.75 4.67, 8.27 6.07, 7.79 6.88 C7.3 7.68, 6.57 8.35, 5.73 8.64 C4.89 8.92, 3.6 9.01, 2.74 8.58 C1.89 8.16, 1.03 6.96, 0.6 6.09 C0.18 5.23, -0.03 4.26, 0.2 3.4 C0.43 2.53, 1.2 1.42, 1.99 0.9 C2.79 0.37, 4.48 0.34, 4.98 0.24 C5.48 0.14, 5.05 0.24, 4.99 0.29 M3.9 -0.17 C4.73 -0.4, 6.1 -0.1, 6.93 0.58 C7.76 1.27, 8.68 3, 8.87 3.92 C9.05 4.85, 8.52 5.34, 8.03 6.16 C7.54 6.97, 6.81 8.39, 5.95 8.8 C5.09 9.22, 3.71 9.02, 2.88 8.63 C2.05 8.25, 1.42 7.31, 0.97 6.48 C0.53 5.65, 0.12 4.58, 0.22 3.65 C0.32 2.72, 0.87 1.48, 1.56 0.89 C2.25 0.3, 3.88 0.2, 4.37 0.12 C4.86 0.04, 4.5 0.41, 4.52 0.42" stroke="#000000" stroke-width="1" fill="none"></path></g><g stroke-linecap="round" transform="translate(274.40818372660345 36.763536647016394) rotate(0 4.400808518235863 4.400808518235863)"><path d="M1.51 1.31 C1.51 1.31, 1.51 1.31, 1.51 1.31 M1.51 1.31 C1.51 1.31, 1.51 1.31, 1.51 1.31 M1.25 7.71 C3.22 5.67, 5.4 3.13, 7.15 0.92 M1.25 7.71 C3.02 5.69, 4.75 3.6, 7.15 0.92 M4.92 9.58 C5.89 8.65, 6.42 7.77, 8.86 5.05 M4.92 9.58 C6.35 7.89, 7.77 6.34, 8.86 5.05 M0.64 6.88 C0.64 6.88, 0.64 6.88, 0.64 6.88 M0.64 6.88 C0.64 6.88, 0.64 6.88, 0.64 6.88 M7.8 7.8 C6.27 6.17, 4.84 5.09, 1 1.9 M7.8 7.8 C5.91 6.29, 4.38 4.81, 1 1.9 M8.91 3.47 C7.72 2.25, 6.53 1.5, 4.38 -0.47 M8.91 3.47 C7.76 2.31, 6.43 1.3, 4.38 -0.47" stroke="#15aabf" stroke-width="0.5" fill="none"></path><path d="M3.93 0.29 C4.8 0.17, 6.21 0.13, 6.98 0.64 C7.75 1.16, 8.27 2.42, 8.53 3.38 C8.79 4.35, 8.91 5.55, 8.54 6.44 C8.17 7.32, 7.19 8.37, 6.31 8.71 C5.43 9.05, 4.2 8.77, 3.26 8.48 C2.32 8.18, 1.23 7.69, 0.7 6.93 C0.18 6.17, -0.03 4.86, 0.1 3.93 C0.23 2.99, 0.79 1.97, 1.48 1.34 C2.18 0.71, 3.85 0.35, 4.3 0.16 C4.74 -0.04, 4.15 0.1, 4.14 0.17 M4.95 -0.27 C5.92 -0.07, 7.3 1.28, 7.9 2 C8.49 2.72, 8.56 3.14, 8.53 4.06 C8.49 4.98, 8.26 6.73, 7.67 7.51 C7.09 8.3, 5.89 8.68, 5.03 8.76 C4.18 8.83, 3.3 8.45, 2.54 7.96 C1.78 7.46, 0.83 6.67, 0.47 5.79 C0.11 4.91, 0.07 3.53, 0.38 2.69 C0.68 1.85, 1.47 1.12, 2.31 0.74 C3.15 0.36, 4.91 0.52, 5.41 0.38 C5.91 0.25, 5.4 -0.15, 5.32 -0.09" stroke="#000000" stroke-width="1" fill="none"></path></g><g stroke-linecap="round" transform="translate(300.8130348360183 63.16838775643126) rotate(0 4.400808518235861 4.400808518235863)"><path d="M1.43 1.25 C1.43 1.25, 1.43 1.25, 1.43 1.25 M1.43 1.25 C1.43 1.25, 1.43 1.25, 1.43 1.25 M1.17 7.64 C2.91 5.82, 4.38 4.25, 7.08 0.85 M1.17 7.64 C2.27 6.3, 3.42 4.79, 7.08 0.85 M5.5 8.76 C6.26 7.78, 7.36 6.58, 9.44 4.23 M5.5 8.76 C6.91 7.18, 8.21 5.63, 9.44 4.23 M0.68 6.84 C0.68 6.84, 0.68 6.84, 0.68 6.84 M0.68 6.84 C0.68 6.84, 0.68 6.84, 0.68 6.84 M7.08 7.1 C5.55 5.65, 3.64 4.43, 1.04 1.85 M7.08 7.1 C5.49 5.68, 3.78 4.24, 1.04 1.85 M8.95 3.42 C7.91 2.62, 6.84 1.47, 4.42 -0.51 M8.95 3.42 C7.55 2.2, 6.12 0.99, 4.42 -0.51" stroke="#15aabf" stroke-width="0.5" fill="none"></path><path d="M4.1 -0.29 C5.02 -0.44, 6.11 0.2, 6.92 0.82 C7.73 1.44, 8.68 2.46, 8.96 3.44 C9.23 4.42, 9 5.86, 8.56 6.68 C8.11 7.5, 7.19 8.02, 6.28 8.37 C5.37 8.72, 4.01 9.04, 3.09 8.79 C2.16 8.54, 1.24 7.68, 0.74 6.89 C0.23 6.09, -0.04 4.94, 0.07 4.01 C0.18 3.08, 0.73 1.95, 1.39 1.3 C2.04 0.64, 3.51 0.26, 3.99 0.09 C4.48 -0.09, 4.19 0.24, 4.3 0.27 M4.31 0.49 C5.18 0.39, 6.05 0.06, 6.75 0.6 C7.46 1.14, 8.31 2.75, 8.54 3.72 C8.77 4.69, 8.48 5.67, 8.13 6.41 C7.78 7.15, 7.23 7.81, 6.43 8.15 C5.62 8.49, 4.25 8.7, 3.32 8.44 C2.39 8.17, 1.38 7.29, 0.86 6.55 C0.34 5.81, 0.06 4.84, 0.2 4.01 C0.34 3.17, 0.99 2.23, 1.69 1.53 C2.39 0.82, 3.99 -0.03, 4.38 -0.22 C4.77 -0.42, 4.06 0.18, 4.03 0.36" stroke="#000000" stroke-width="1" fill="none"></path></g><g stroke-linecap="round" transform="translate(327.2178859454332 49.96596220172384) rotate(0 4.400808518235861 4.400808518235863)"><path d="M2.03 0.44 C2.03 0.44, 2.03 0.44, 2.03 0.44 M2.03 0.44 C2.03 0.44, 2.03 0.44, 2.03 0.44 M1.11 7.59 C3.41 5.24, 5.39 2.28, 7.02 0.8 M1.11 7.59 C2.95 5.23, 4.94 3.19, 7.02 0.8 M4.79 9.46 C6.28 7.74, 7.61 6.37, 9.38 4.18 M4.79 9.46 C5.84 8.23, 7.1 6.75, 9.38 4.18 M2.14 8.21 C2.14 8.21, 2.14 8.21, 2.14 8.21 M2.14 8.21 C2.14 8.21, 2.14 8.21, 2.14 8.21 M7.03 7.16 C5.62 6.28, 4.4 4.68, 0.99 1.91 M7.03 7.16 C5.23 5.63, 3.44 4.13, 0.99 1.91 M9.65 4.14 C8.46 2.98, 7.4 2.37, 4.37 -0.45 M9.65 4.14 C8.42 3.1, 7.3 2.2, 4.37 -0.45" stroke="#15aabf" stroke-width="0.5" fill="none"></path><path d="M4.85 -0.06 C5.81 0.05, 7.23 0.68, 7.94 1.43 C8.64 2.19, 9.04 3.56, 9.06 4.49 C9.09 5.42, 8.7 6.28, 8.08 7.01 C7.46 7.75, 6.28 8.68, 5.34 8.91 C4.39 9.14, 3.21 8.86, 2.38 8.42 C1.55 7.98, 0.71 7.12, 0.34 6.24 C-0.03 5.37, -0.08 4.1, 0.16 3.18 C0.4 2.27, 0.96 1.24, 1.76 0.75 C2.57 0.25, 4.38 0.36, 4.99 0.23 C5.6 0.1, 5.45 -0.08, 5.43 -0.05 M3.65 -0.25 C4.49 -0.42, 5.92 0.51, 6.71 1.08 C7.51 1.66, 8.09 2.41, 8.43 3.21 C8.76 4.01, 9.02 5.07, 8.71 5.89 C8.39 6.72, 7.39 7.75, 6.52 8.17 C5.65 8.59, 4.4 8.58, 3.48 8.4 C2.56 8.23, 1.54 7.77, 1.01 7.11 C0.49 6.45, 0.25 5.43, 0.32 4.43 C0.4 3.44, 0.88 1.81, 1.47 1.12 C2.05 0.43, 3.39 0.39, 3.81 0.29 C4.24 0.2, 3.96 0.51, 4 0.56" stroke="#000000" stroke-width="1" fill="none"></path></g><g stroke-linecap="round" transform="translate(353.622737054848 23.56111109230895) rotate(0 4.400808518235863 4.400808518235863)"><path d="M0.75 1.97 C0.75 1.97, 0.75 1.97, 0.75 1.97 M0.75 1.97 C0.75 1.97, 0.75 1.97, 0.75 1.97 M1.14 7.62 C2.66 5.47, 4.87 3.22, 7.05 0.82 M1.14 7.62 C2.99 5.51, 5.03 3.08, 7.05 0.82 M5.47 8.73 C6.59 7.55, 7.45 6.37, 8.75 4.96 M5.47 8.73 C6.55 7.46, 7.64 6.23, 8.75 4.96 M0.55 6.99 C0.55 6.99, 0.55 6.99, 0.55 6.99 M0.55 6.99 C0.55 6.99, 0.55 6.99, 0.55 6.99 M6.95 7.25 C5.06 5.42, 3.29 4.16, 0.91 2 M6.95 7.25 C5.04 5.66, 3.2 4.08, 0.91 2 M8.82 3.58 C7.23 2.34, 5.47 0.77, 4.29 -0.36 M8.82 3.58 C7.5 2.52, 6.25 1.41, 4.29 -0.36" stroke="#15aabf" stroke-width="0.5" fill="none"></path><path d="M4.02 0.01 C4.97 -0.12, 6.18 0.4, 6.98 0.88 C7.77 1.36, 8.54 2.02, 8.8 2.91 C9.06 3.8, 8.9 5.31, 8.52 6.23 C8.15 7.15, 7.38 7.97, 6.55 8.42 C5.72 8.86, 4.48 9.11, 3.54 8.92 C2.59 8.73, 1.53 8.05, 0.89 7.29 C0.25 6.53, -0.34 5.3, -0.31 4.36 C-0.29 3.42, 0.28 2.41, 1.02 1.65 C1.77 0.9, 3.7 0.11, 4.17 -0.16 C4.63 -0.44, 3.9 -0.11, 3.83 0.02 M4.96 0.39 C5.87 0.53, 6.84 0.95, 7.53 1.56 C8.22 2.17, 9 3.14, 9.08 4.05 C9.16 4.96, 8.61 6.27, 7.99 7 C7.37 7.73, 6.29 8.23, 5.36 8.45 C4.43 8.68, 3.22 8.72, 2.42 8.36 C1.63 8, 0.92 7.23, 0.6 6.29 C0.28 5.35, 0.24 3.63, 0.48 2.72 C0.72 1.82, 1.25 1.26, 2.03 0.89 C2.81 0.52, 4.64 0.61, 5.17 0.5 C5.7 0.4, 5.14 0.32, 5.2 0.25" stroke="#000000" stroke-width="1" fill="none"></path></g><g stroke-linecap="round"><g transform="translate(30.970125859525808 110.03699847564263) rotate(0 163.38001623950447 -29.522090476498676)"><path d="M-1.05 -0.65 C2.75 1.48, 15.3 7.99, 23.83 12.29 C32.35 16.59, 41.19 23.1, 50.12 25.15 C59.06 27.21, 70.9 29.35, 77.46 24.63 C84.01 19.91, 82.82 5.9, 89.46 -3.18 C96.11 -12.26, 108.33 -23.37, 117.35 -29.86 C126.36 -36.34, 137.05 -33.14, 143.53 -42.08 C150.01 -51.01, 149.88 -78.79, 156.24 -83.46 C162.61 -88.12, 173.06 -79.24, 181.73 -70.09 C190.4 -60.94, 199.25 -33.34, 208.24 -28.56 C217.24 -23.78, 229.23 -34.6, 235.72 -41.4 C242.21 -48.2, 240.76 -69.17, 247.19 -69.37 C253.63 -69.56, 265.22 -45.23, 274.33 -42.58 C283.45 -39.93, 293.23 -47.03, 301.86 -53.49 C310.49 -59.95, 322.01 -76.94, 326.1 -81.33 M0.61 1.63 C4.12 3.47, 14.56 7.03, 22.68 10.64 C30.79 14.26, 40.05 21.33, 49.3 23.31 C58.54 25.28, 71.1 26.83, 78.13 22.49 C85.16 18.15, 85.22 6.15, 91.45 -2.73 C97.67 -11.61, 106.65 -24.01, 115.48 -30.78 C124.31 -37.56, 137.75 -34.52, 144.44 -43.37 C151.13 -52.23, 149.62 -79.73, 155.61 -83.91 C161.59 -88.08, 171.43 -77.53, 180.36 -68.41 C189.28 -59.29, 199.83 -33.34, 209.17 -29.18 C218.51 -25.03, 229.73 -36.67, 236.38 -43.47 C243.03 -50.28, 242.73 -70.57, 249.06 -70.01 C255.4 -69.46, 265.66 -42.97, 274.38 -40.15 C283.1 -37.33, 292.75 -46.06, 301.37 -53.07 C309.99 -60.09, 321.76 -77.44, 326.08 -82.23" stroke="#0b7285" stroke-width="1" fill="none"></path></g></g><mask></mask></svg>